Coordinates
version=1
nRows=22
nColumns=24
inDegrees=yes

Units are S.I. units (second, meters, Newtons, ...)
Angles are in degrees.

endheader
time	pelvis_tilt	pelvis_list	pelvis_rotation	pelvis_tx	pelvis_ty	pelvis_tz	hip_flexion_r	hip_adduction_r	hip_rotation_r	knee_angle_r	ankle_angle_r	subtalar_angle_r	mtp_angle_r	hip_flexion_l	hip_adduction_l	hip_rotation_l	knee_angle_l	ankle_angle_l	subtalar_angle_l	mtp_angle_l	lumbar_extension	lumbar_bending	lumbar_rotation
      4.19000000	    -14.95694315	      1.95429743	     -6.42437776	     -0.26962063	     -0.02256809	     -0.00493532	      0.33224682	      0.23023429	      1.70101175	    -10.46405699	      3.39534501	     11.03541483	     16.43850936	     35.83272393	     -1.23888769	    -17.69309828	     -7.17793272	    -13.20163867	     11.13803008	     15.74234022	      9.41219444	     -3.12344408	      8.01291091
      4.19500000	    -14.99519686	      1.95918700	     -6.58012990	     -0.26451644	     -0.02286590	     -0.00507252	      0.28860434	      0.14722739	      1.75622527	    -10.81347619	      3.20711637	     11.34076444	     16.59411663	     35.68215363	     -1.27376779	    -17.72977370	     -7.43632982	    -13.22567107	     11.05595223	     15.73581437	      9.43733247	     -3.16359164	      8.18167308
      4.20000000	    -15.04142849	      2.08081103	     -6.72511184	     -0.25920041	     -0.02313307	     -0.00520737	      0.28428035	     -0.08188814	      1.63860262	    -11.20578558	      3.04744654	     11.89767026	     16.95846795	     35.47329280	     -1.17580957	    -17.83347814	     -7.54698095	    -13.37089172	     10.98379919	     15.72253497	      9.51930253	     -3.33056367	      8.31466144
      4.20500000	    -15.06318868	      2.18541396	     -6.84545902	     -0.25392147	     -0.02332035	     -0.00543287	      0.26491520	     -0.30209874	      1.47894823	    -11.60547402	      2.81423758	     12.43128712	     17.43389254	     35.23134877	     -1.05940183	    -17.92991329	     -7.59961607	    -13.62569397	     10.80350071	     15.75184662	      9.56075630	     -3.48025960	      8.39082075
      4.21000000	    -15.14192138	      2.30594778	     -7.03457072	     -0.24871126	     -0.02347898	     -0.00551418	      0.33856291	     -0.51113559	      1.54670021	    -12.05000284	      2.58401760	     12.78194278	     17.59397117	     35.03441503	     -0.97879346	    -18.05371604	     -7.60102698	    -13.92809079	     10.64023439	     15.68662270	      9.65798140	     -3.63321252	      8.58392989
      4.21500000	    -15.19772850	      2.50389872	     -7.19380123	     -0.24335901	     -0.02358430	     -0.00567193	      0.42163451	     -0.83306580	      1.43906761	    -12.54936836	      2.39219340	     13.40987439	     17.90551505	     34.75873469	     -0.77759105	    -18.12434750	     -7.44071051	    -14.37512114	     10.32237940	     15.68343016	      9.76353085	     -3.87197906	      8.70887096
      4.22000000	    -15.22052722	      2.68972729	     -7.29110759	     -0.23808609	     -0.02355704	     -0.00593210	      0.47582385	     -1.15827113	      1.19688614	    -13.03993644	      2.09033015	     14.09068335	     18.31962541	     34.46594977	     -0.53617321	    -18.10767829	     -7.24827287	    -14.99789712	      9.80298016	     15.70252277	      9.80526727	     -4.11655484	      8.82346890
      4.22500000	    -15.27746967	      2.93567190	     -7.42533052	     -0.23273175	     -0.02350618	     -0.00609621	      0.60733816	     -1.53443553	      1.02975834	    -13.59251145	      1.78969195	     14.66968941	     18.68802093	     34.18149865	     -0.25553656	    -18.10466520	     -6.98619680	    -15.62412191	      9.21630622	     15.61587144	      9.91472236	     -4.41489964	      8.93670886
      4.23000000	    -15.34304907	      3.20819370	     -7.55266313	     -0.22739944	     -0.02340050	     -0.00626835	      0.77439163	     -1.94458527	      0.88923289	    -14.17637787	      1.47765971	     15.30902756	     19.00768804	     33.90878194	      0.05763574	    -18.03052043	     -6.70977412	    -16.28376270	      8.54589249	     15.41252706	     10.03259355	     -4.74606727	      9.06369021
      4.23500000	    -15.40476183	      3.49833620	     -7.67203009	     -0.22200127	     -0.02324698	     -0.00645939	      0.96447365	     -2.38187604	      0.67026626	    -14.80461160	      1.12555987	     15.97703254	     19.31172741	     33.62579460	      0.40403079	    -17.87001267	     -6.42530913	    -16.92691855	      7.72588896	     15.09459726	     10.16047195	     -5.09422171	      9.16736693
      4.24000000	    -15.46357921	      3.79433225	     -7.77316398	     -0.21659782	     -0.02305806	     -0.00667598	      1.17963747	     -2.83450045	      0.41045960	    -15.47736668	      0.73989261	     16.68908847	     19.62242391	     33.34689413	      0.77123123	    -17.59146244	     -6.16574314	    -17.54662901	      6.78838960	     14.64155403	     10.28617356	     -5.45276811	      9.25281299
      4.24500000	    -15.52927878	      4.09433769	     -7.86851005	     -0.21117047	     -0.02285350	     -0.00690179	      1.42982848	     -3.29885376	      0.12439024	    -16.19283114	      0.31575734	     17.43084951	     19.93267496	     33.08254292	      1.14514332	    -17.22640114	     -5.94495306	    -18.10521678	      5.78857378	     14.06914358	     10.42366422	     -5.81573106	      9.32795510
      4.25000000	    -15.60036894	      4.38748670	     -7.94404727	     -0.20571991	     -0.02264624	     -0.00716981	      1.71204540	     -3.76778964	     -0.22564029	    -16.95321318	     -0.15885350	     18.20872113	     20.26406937	     32.83422043	      1.52294592	    -16.76538211	     -5.77012965	    -18.58758940	      4.74055464	     13.39628346	     10.56668679	     -6.17217031	      9.37645359
      4.25500000	    -15.67898239	      4.68051274	     -7.96148021	     -0.20026463	     -0.02246617	     -0.00749626	      2.02452674	     -4.24662384	     -0.65277792	    -17.76035362	     -0.67338600	     18.95811355	     20.69189152	     32.61250759	      1.92570324	    -16.17692453	     -5.65182859	    -18.97956950	      3.68908437	     12.61080572	     10.71049897	     -6.54415270	      9.35173856
      4.26000000	    -15.78139559	      4.96196904	     -8.02366620	     -0.19473634	     -0.02226763	     -0.00780529	      2.39203541	     -4.72599564	     -1.07195621	    -18.59689499	     -1.29929284	     19.79728868	     21.08773468	     32.41580368	      2.28266202	    -15.71110879	     -5.56029098	    -19.26789530	      2.76844598	     11.92434142	     10.90091274	     -6.88085879	      9.36848438
      4.26500000	    -15.89303959	      5.24895399	     -8.06220149	     -0.18924355	     -0.02209456	     -0.00812461	      2.81228500	     -5.22143198	     -1.54207898	    -19.50262823	     -1.97345601	     20.60717493	     21.55088818	     32.24662004	      2.64260429	    -15.25207584	     -5.50835946	    -19.46756503	      1.95982181	     11.27217962	     11.09221857	     -7.22983566	      9.37082295
      4.27000000	    -16.00600510	      5.51428899	     -8.09076597	     -0.18388049	     -0.02193974	     -0.00848428	      3.28693090	     -5.71042294	     -2.06061785	    -20.48202417	     -2.72800666	     21.41072625	     22.18458599	     32.10463006	      2.97272231	    -14.79580545	     -5.51162232	    -19.54664623	      1.28063814	     10.64881771	     11.25913601	     -7.55486557	      9.36993660
      4.27500000	    -16.14222843	      5.78773652	     -8.10515238	     -0.17845444	     -0.02179197	     -0.00886016	      3.81026117	     -6.22282414	     -2.61115979	    -21.48752366	     -3.60986752	     22.20928372	     22.88129825	     31.99321919	      3.30240529	    -14.48899429	     -5.52990541	    -19.53858409	      0.81514611	     10.16666185	     11.46556377	     -7.88615765	      9.34557846
      4.28000000	    -16.28063555	      6.07393254	     -8.12874103	     -0.17295542	     -0.02162674	     -0.00922599	      4.36229853	     -6.76374019	     -3.14459808	    -22.52279178	     -4.59348248	     23.02637362	     23.45729349	     31.88257317	      3.62700081	    -14.37927309	     -5.54811609	    -19.45069766	      0.58660092	      9.89534411	     11.69439967	     -8.22309832	      9.32049664
      4.28500000	    -16.46585562	      6.28192372	     -8.09365381	     -0.16773853	     -0.02150906	     -0.00976236	      5.00926128	     -7.23931588	     -3.76167337	    -23.58563317	     -5.82695275	     23.70341002	     24.89011236	     31.85887910	      3.89497222	    -14.05035767	     -5.65709109	    -19.22645018	      0.32270575	      9.33378769	     11.90166773	     -8.47705144	      9.24205819
      4.29000000	    -16.54402559	      6.56238211	     -8.09826508	     -0.16243008	     -0.02127612	     -0.01015316	      5.59118385	     -7.81182772	     -4.29380130	    -24.75490635	     -6.94548176	     24.48179607	     25.24858464	     31.70521905	      4.20772678	    -14.12512040	     -5.69797127	    -19.04631426	      0.44831541	      9.37558719	     12.02752212	     -8.82077787	      9.19951207
      4.29500000	    -16.81910837	      6.82140109	     -8.00979362	     -0.15718416	     -0.02128051	     -0.01069554	      6.40761077	     -8.35430290	     -4.95021693	    -25.89372727	     -8.43827884	     24.84589312	     27.18436213	     31.79991663	      4.51561318	    -14.02423973	     -5.84933116	    -18.66512053	      0.51524283	      8.90565278	     12.34874025	     -9.13352084	      9.05800175
